<!-- Generator: Adobe Illustrator 18.0.0, SVG Export Plug-In  -->
<svg version="1.1"
	 xmlns="http://www.w3.org/2000/svg" xmlns:xlink="http://www.w3.org/1999/xlink" xmlns:a="http://ns.adobe.com/AdobeSVGViewerExtensions/3.0/"
	 x="0px" y="0px" width="144px" height="120px" viewBox="0 0 144 120" enable-background="new 0 0 144 120" xml:space="preserve">
<defs>
</defs>
<g>
	<rect y="0" fill="none" width="144" height="120"/>
	<g>
		<path fill="#00965E" d="M83.2,29.4L72,0L60.8,29.4c2.5-2,6.5-4.4,11.2-4.4C76.7,25,80.7,27.4,83.2,29.4z"/>
		<path fill="#0077C8" d="M116,32H79c-2,0-5,1.3-5,3v12.1c2.1,0.1,3.6,0.4,5,0.8V47c0-3-1.8-3.4-3-3.8v-5.4c0.9,0.7,2.1,1.2,3,1.2
			c2.3,0,3.6-0.8,4.3-1.7C85.5,38.5,86,41,86,43c0,2-5.4,5.4-5.4,5.4c3,1.1,6,3.7,10.2,0.8C95,46.4,116,32,116,32z"/>
		<path fill="#F1B434" d="M92.7,54.3c-1.5,0.2-4.1,0.4-6.7-0.3c-3.8-1-6-5-10-5c-2,0-2,1-4,1c-2,0-2-1-4-1c-4,0-6.2,4-10,5
			c-2.6,0.7-5.2,0.5-6.7,0.3l-2,5.3L72,75l22.7-15.4L92.7,54.3z M69.2,60.6C67.3,60.1,66,59.1,66,58c0-0.1,0-0.1,0-0.2
			c2.2-1.2,4.1-2.8,6-2.8c1.9,0,3.8,1.6,6,2.8c0,0.1,0,0.1,0,0.2c0,1.1-1.3,2.1-3.2,2.6L74,59h-4L69.2,60.6z"/>
		<path fill="#E40046" d="M65,32H28c0,0,21,14.4,25.2,17.3c4.2,2.9,7.2,0.3,10.2-0.8c0,0-5.4-3.4-5.4-5.4c0-2,0.5-4.5,2.7-5.7
			c0.7,1,2,1.7,4.3,1.7c0.9,0,2.1-0.5,3-1.2c1.1-0.8,2-1.9,2-2.8C70,33.3,67,32,65,32z"/>
	</g>
	<g>
		<path d="M63.8,100.5h-5.9V90c0-2.7-1-4-3.1-4c-1,0-1.8,0.4-2.4,1.2c-0.6,0.8-0.9,1.8-0.9,3v10.4h-5.9V89.9c0-2.6-1-3.9-3-3.9
			c-1,0-1.8,0.4-2.4,1.2c-0.6,0.8-0.9,1.8-0.9,3.1v10.3h-5.9V82h5.9v2.9h0.1c0.6-1,1.5-1.8,2.6-2.4c1.1-0.6,2.3-0.9,3.6-0.9
			c2.7,0,4.6,1.2,5.6,3.5c1.5-2.3,3.6-3.5,6.5-3.5c4.2,0,6.3,2.5,6.3,7.5V100.5z"/>
		<path d="M121.5,100.5h-5.9v-2.8h-0.1c-1.5,2.2-3.4,3.3-5.9,3.3c-4.5,0-6.7-2.6-6.7-7.8V82h5.9v10.7c0,2.6,1.1,3.9,3.2,3.9
			c1.1,0,1.9-0.4,2.6-1.1c0.6-0.7,1-1.7,1-2.9V82h5.9V100.5z"/>
		<path d="M125.2,100.1v-4.6c1,0.6,1.9,1,2.9,1.3c1,0.3,1.9,0.4,2.7,0.4c1.1,0,1.9-0.1,2.5-0.4c0.6-0.3,0.9-0.7,0.9-1.3
			c0-0.4-0.1-0.7-0.4-0.9c-0.3-0.2-0.6-0.5-1.1-0.6c-0.4-0.2-0.9-0.3-1.4-0.5c-0.5-0.1-1-0.3-1.5-0.5c-0.8-0.3-1.4-0.6-2-0.9
			c-0.6-0.3-1.1-0.7-1.5-1.1c-0.4-0.4-0.7-0.9-0.9-1.5c-0.2-0.6-0.3-1.2-0.3-2c0-1,0.2-1.9,0.7-2.7c0.5-0.7,1.1-1.4,1.9-1.8
			c0.8-0.5,1.7-0.8,2.7-1c1-0.2,2.1-0.3,3.1-0.3c0.9,0,1.7,0.1,2.6,0.2c0.9,0.1,1.7,0.3,2.6,0.6v4.4c-0.8-0.4-1.6-0.7-2.4-0.9
			c-0.9-0.2-1.7-0.3-2.5-0.3c-0.4,0-0.8,0-1.1,0.1c-0.3,0.1-0.6,0.2-0.9,0.3c-0.3,0.1-0.5,0.3-0.6,0.5c-0.2,0.2-0.2,0.4-0.2,0.7
			c0,0.3,0.1,0.6,0.3,0.9c0.2,0.2,0.5,0.4,0.9,0.6c0.4,0.2,0.8,0.3,1.2,0.5c0.4,0.1,0.9,0.3,1.3,0.4c0.8,0.3,1.5,0.6,2.1,0.9
			c0.6,0.3,1.2,0.7,1.6,1.1c0.5,0.4,0.8,0.9,1.1,1.5c0.2,0.6,0.4,1.2,0.4,2c0,1.1-0.2,2-0.7,2.8c-0.5,0.8-1.2,1.4-2,1.9
			c-0.8,0.5-1.8,0.8-2.8,1.1c-1.1,0.2-2.2,0.3-3.3,0.3C129,101,127.1,100.7,125.2,100.1z"/>
		<polygon points="68.5,84.1 68.5,100.5 74.5,100.5 74.5,80 		"/>
		<path d="M92.3,73.1v11.1h-0.1c-1-1.7-2.7-2.6-5.2-2.6c-2.6,0-4.7,0.9-6.3,2.8c-1.6,1.8-2.4,4.3-2.4,7.4c0,2.9,0.7,5.2,2.2,6.8
			c1.5,1.6,3.4,2.5,5.8,2.5c2.6,0,4.6-1,5.9-3h0.1v2.6h5.9V69L92.3,73.1z M92.4,91.5c0,1.5-0.4,2.8-1.1,3.7
			c-0.8,0.9-1.7,1.4-2.9,1.4c-1.3,0-2.3-0.4-3-1.3c-0.7-0.9-1.1-2.1-1.1-3.8c0-1.7,0.4-3.1,1.1-4.1c0.7-1,1.8-1.5,3.1-1.5
			c1.2,0,2.1,0.4,2.8,1.2c0.7,0.8,1.1,1.8,1.1,3V91.5z"/>
		<path d="M23.9,100.5h6.6L21,74.6h-7.2L4,100.5h6.6l1.8-5.5h9.8L23.9,100.5z M13.8,90.5l2.9-9c0.3-0.7,0.4-1.5,0.5-2.3h0.2
			c0.1,0.9,0.2,1.7,0.5,2.3l2.9,8.9H13.8z"/>
	</g>
	<g>
		<path d="M13,109l-2,6.9h-0.9l-1.4-5c-0.1-0.2-0.1-0.4-0.1-0.7h0c0,0.2-0.1,0.5-0.1,0.7L7,115.9H6L4,109h0.9l1.5,5.3
			c0.1,0.2,0.1,0.5,0.1,0.7h0c0-0.2,0.1-0.4,0.1-0.7l1.5-5.3H9l1.5,5.3c0.1,0.2,0.1,0.4,0.1,0.6h0c0-0.2,0.1-0.4,0.1-0.7l1.4-5.3H13
			z"/>
		<path d="M17.6,113.6h-3.5c0,0.5,0.2,1,0.4,1.3c0.3,0.3,0.7,0.4,1.2,0.4c0.6,0,1.1-0.2,1.5-0.5v0.7c-0.4,0.3-1,0.5-1.7,0.5
			c-0.7,0-1.2-0.2-1.6-0.7c-0.4-0.4-0.6-1.1-0.6-1.9c0-0.8,0.2-1.4,0.7-1.9c0.4-0.5,1-0.7,1.6-0.7c0.6,0,1.1,0.2,1.5,0.6
			c0.4,0.4,0.5,1,0.5,1.7V113.6z M16.8,112.9c0-0.5-0.1-0.8-0.3-1.1c-0.2-0.3-0.5-0.4-0.9-0.4c-0.4,0-0.7,0.1-0.9,0.4
			c-0.3,0.3-0.4,0.6-0.5,1H16.8z"/>
		<path d="M25,115.9h-0.8v-0.8h0c-0.3,0.6-0.8,0.9-1.5,0.9c-0.5,0-0.9-0.1-1.2-0.4c-0.3-0.3-0.4-0.6-0.4-1c0-0.9,0.5-1.5,1.6-1.6
			l1.5-0.2c0-0.8-0.3-1.3-1-1.3c-0.6,0-1.1,0.2-1.6,0.6v-0.8c0.5-0.3,1-0.5,1.7-0.5c1.2,0,1.7,0.6,1.7,1.8V115.9z M24.3,113.4
			l-1.2,0.2c-0.4,0.1-0.6,0.1-0.8,0.3c-0.2,0.1-0.3,0.4-0.3,0.7c0,0.2,0.1,0.4,0.3,0.6c0.2,0.2,0.4,0.2,0.7,0.2c0.4,0,0.7-0.1,1-0.4
			c0.3-0.3,0.4-0.6,0.4-1V113.4z"/>
		<path d="M29.1,111.8c-0.1-0.1-0.3-0.2-0.6-0.2c-0.3,0-0.6,0.2-0.8,0.5c-0.2,0.3-0.3,0.8-0.3,1.3v2.5h-0.8V111h0.8v1h0
			c0.1-0.3,0.3-0.6,0.5-0.8c0.2-0.2,0.5-0.3,0.8-0.3c0.2,0,0.4,0,0.5,0.1V111.8z"/>
		<path d="M33.8,113.6h-3.5c0,0.5,0.2,1,0.4,1.3c0.3,0.3,0.7,0.4,1.2,0.4c0.6,0,1.1-0.2,1.5-0.5v0.7c-0.4,0.3-1,0.5-1.7,0.5
			c-0.7,0-1.2-0.2-1.6-0.7c-0.4-0.4-0.6-1.1-0.6-1.9c0-0.8,0.2-1.4,0.7-1.9c0.4-0.5,1-0.7,1.6-0.7c0.6,0,1.1,0.2,1.5,0.6
			c0.4,0.4,0.5,1,0.5,1.7V113.6z M33,112.9c0-0.5-0.1-0.8-0.3-1.1c-0.2-0.3-0.5-0.4-0.9-0.4c-0.4,0-0.7,0.1-0.9,0.4
			c-0.3,0.3-0.4,0.6-0.5,1H33z"/>
		<path d="M46,109l-2,6.9h-0.9l-1.4-5c-0.1-0.2-0.1-0.4-0.1-0.7h0c0,0.2-0.1,0.5-0.1,0.7l-1.4,5.1H39l-2-6.9h0.9l1.5,5.3
			c0.1,0.2,0.1,0.5,0.1,0.7h0c0-0.2,0.1-0.4,0.1-0.7l1.5-5.3H42l1.5,5.3c0.1,0.2,0.1,0.4,0.1,0.6h0c0-0.2,0.1-0.4,0.1-0.7l1.4-5.3
			H46z"/>
		<path d="M47.3,109.7c-0.1,0-0.3,0-0.4-0.1c-0.1-0.1-0.1-0.2-0.1-0.4c0-0.1,0-0.3,0.1-0.4c0.1-0.1,0.2-0.1,0.4-0.1
			c0.1,0,0.3,0,0.4,0.1s0.2,0.2,0.2,0.4c0,0.1-0.1,0.3-0.2,0.4C47.6,109.6,47.5,109.7,47.3,109.7z M47.7,115.9h-0.8V111h0.8V115.9z"
			/>
		<path d="M52.7,111.2l-2.9,4h2.9v0.7h-4.1v-0.2l2.9-4h-2.6V111h3.8V111.2z"/>
		<path d="M57.3,115.9h-0.8v-0.8h0c-0.3,0.6-0.8,0.9-1.5,0.9c-0.5,0-0.9-0.1-1.2-0.4s-0.4-0.6-0.4-1c0-0.9,0.5-1.5,1.6-1.6l1.5-0.2
			c0-0.8-0.3-1.3-1-1.3c-0.6,0-1.1,0.2-1.6,0.6v-0.8c0.5-0.3,1-0.5,1.7-0.5c1.2,0,1.7,0.6,1.7,1.8V115.9z M56.5,113.4l-1.2,0.2
			c-0.4,0.1-0.6,0.1-0.8,0.3c-0.2,0.1-0.3,0.4-0.3,0.7c0,0.2,0.1,0.4,0.3,0.6c0.2,0.2,0.4,0.2,0.7,0.2c0.4,0,0.7-0.1,1-0.4
			c0.3-0.3,0.4-0.6,0.4-1V113.4z"/>
		<path d="M61.4,111.8c-0.1-0.1-0.3-0.2-0.6-0.2c-0.3,0-0.6,0.2-0.8,0.5c-0.2,0.3-0.3,0.8-0.3,1.3v2.5h-0.8V111h0.8v1h0
			c0.1-0.3,0.3-0.6,0.5-0.8c0.2-0.2,0.5-0.3,0.8-0.3c0.2,0,0.4,0,0.5,0.1V111.8z"/>
		<path d="M66.3,115.9h-0.8V115h0c-0.4,0.6-0.9,1-1.7,1c-0.6,0-1.1-0.2-1.5-0.7c-0.4-0.4-0.6-1-0.6-1.8c0-0.8,0.2-1.5,0.6-2
			c0.4-0.5,1-0.7,1.6-0.7c0.7,0,1.2,0.3,1.5,0.8h0v-3.1h0.8V115.9z M65.5,113.7v-0.7c0-0.4-0.1-0.7-0.4-1c-0.3-0.3-0.6-0.4-1-0.4
			c-0.5,0-0.9,0.2-1.1,0.5c-0.3,0.4-0.4,0.8-0.4,1.5c0,0.6,0.1,1,0.4,1.3s0.6,0.5,1.1,0.5c0.4,0,0.8-0.2,1.1-0.5
			S65.5,114.1,65.5,113.7z"/>
		<path d="M67.6,115.7v-0.8c0.4,0.3,0.9,0.5,1.4,0.5c0.7,0,1-0.2,1-0.7c0-0.1,0-0.2-0.1-0.3c-0.1-0.1-0.1-0.2-0.2-0.2
			c-0.1-0.1-0.2-0.1-0.4-0.2c-0.1-0.1-0.3-0.1-0.4-0.2c-0.2-0.1-0.4-0.2-0.6-0.3c-0.2-0.1-0.3-0.2-0.4-0.3c-0.1-0.1-0.2-0.2-0.3-0.4
			c-0.1-0.1-0.1-0.3-0.1-0.5c0-0.2,0.1-0.4,0.2-0.6c0.1-0.2,0.2-0.3,0.4-0.4c0.2-0.1,0.4-0.2,0.6-0.3c0.2-0.1,0.5-0.1,0.7-0.1
			c0.4,0,0.8,0.1,1.1,0.2v0.8c-0.4-0.2-0.8-0.4-1.3-0.4c-0.1,0-0.3,0-0.4,0.1c-0.1,0-0.2,0.1-0.3,0.1c-0.1,0.1-0.2,0.1-0.2,0.2
			s-0.1,0.2-0.1,0.3c0,0.1,0,0.2,0.1,0.3s0.1,0.2,0.2,0.2c0.1,0.1,0.2,0.1,0.3,0.2c0.1,0.1,0.3,0.1,0.4,0.2c0.2,0.1,0.4,0.2,0.6,0.3
			c0.2,0.1,0.3,0.2,0.4,0.3c0.1,0.1,0.2,0.2,0.3,0.4c0.1,0.1,0.1,0.3,0.1,0.5c0,0.2-0.1,0.5-0.2,0.6c-0.1,0.2-0.3,0.3-0.4,0.4
			c-0.2,0.1-0.4,0.2-0.6,0.3c-0.2,0.1-0.5,0.1-0.7,0.1C68.4,116,68,115.9,67.6,115.7z"/>
		<path d="M78.3,115.9h-0.8v-0.8h0c-0.3,0.6-0.8,0.9-1.5,0.9c-0.5,0-0.9-0.1-1.2-0.4s-0.4-0.6-0.4-1c0-0.9,0.5-1.5,1.6-1.6l1.5-0.2
			c0-0.8-0.3-1.3-1-1.3c-0.6,0-1.1,0.2-1.6,0.6v-0.8c0.5-0.3,1-0.5,1.7-0.5c1.2,0,1.7,0.6,1.7,1.8V115.9z M77.5,113.4l-1.2,0.2
			c-0.4,0.1-0.6,0.1-0.8,0.3c-0.2,0.1-0.3,0.4-0.3,0.7c0,0.2,0.1,0.4,0.3,0.6c0.2,0.2,0.4,0.2,0.7,0.2c0.4,0,0.7-0.1,1-0.4
			c0.3-0.3,0.4-0.6,0.4-1V113.4z"/>
		<path d="M82.1,115.8c-0.2,0.1-0.4,0.2-0.7,0.2c-0.9,0-1.3-0.5-1.3-1.4v-2.9h-0.8V111h0.8v-1.2l0.8-0.3v1.5h1.2v0.7h-1.2v2.8
			c0,0.3,0.1,0.6,0.2,0.7c0.1,0.1,0.3,0.2,0.6,0.2c0.2,0,0.4-0.1,0.5-0.2V115.8z"/>
		<path d="M94.1,109l-2,6.9h-0.9l-1.4-5c-0.1-0.2-0.1-0.4-0.1-0.7h0c0,0.2-0.1,0.5-0.1,0.7l-1.4,5.1h-0.9l-2-6.9h0.9l1.5,5.3
			c0.1,0.2,0.1,0.5,0.1,0.7h0c0-0.2,0.1-0.4,0.1-0.7l1.5-5.3h0.8l1.5,5.3c0.1,0.2,0.1,0.4,0.1,0.6h0c0-0.2,0.1-0.4,0.1-0.7l1.4-5.3
			H94.1z"/>
		<path d="M99.2,115.9h-0.8V113c0-1-0.4-1.5-1.1-1.5c-0.4,0-0.7,0.1-1,0.4c-0.3,0.3-0.4,0.7-0.4,1.1v2.8h-0.8v-7.3h0.8v3.2h0
			c0.4-0.6,0.9-0.9,1.6-0.9c1.1,0,1.7,0.7,1.7,2V115.9z"/>
		<path d="M104.2,115.9h-0.8v-0.8h0c-0.3,0.6-0.8,0.9-1.5,0.9c-0.5,0-0.9-0.1-1.2-0.4c-0.3-0.3-0.4-0.6-0.4-1c0-0.9,0.5-1.5,1.6-1.6
			l1.5-0.2c0-0.8-0.3-1.3-1-1.3c-0.6,0-1.1,0.2-1.6,0.6v-0.8c0.5-0.3,1-0.5,1.7-0.5c1.2,0,1.7,0.6,1.7,1.8V115.9z M103.4,113.4
			l-1.2,0.2c-0.4,0.1-0.6,0.1-0.8,0.3c-0.2,0.1-0.3,0.4-0.3,0.7c0,0.2,0.1,0.4,0.3,0.6c0.2,0.2,0.4,0.2,0.7,0.2c0.4,0,0.7-0.1,1-0.4
			c0.3-0.3,0.4-0.6,0.4-1V113.4z"/>
		<path d="M108,115.8c-0.2,0.1-0.4,0.2-0.7,0.2c-0.9,0-1.3-0.5-1.3-1.4v-2.9h-0.8V111h0.8v-1.2l0.8-0.3v1.5h1.2v0.7h-1.2v2.8
			c0,0.3,0.1,0.6,0.2,0.7c0.1,0.1,0.3,0.2,0.6,0.2c0.2,0,0.4-0.1,0.5-0.2V115.8z"/>
		<path d="M120,109l-2,6.9h-0.9l-1.4-5c-0.1-0.2-0.1-0.4-0.1-0.7h0c0,0.2-0.1,0.5-0.1,0.7l-1.4,5.1h-0.9l-2-6.9h0.9l1.5,5.3
			c0.1,0.2,0.1,0.5,0.1,0.7h0c0-0.2,0.1-0.4,0.1-0.7l1.5-5.3h0.8l1.5,5.3c0.1,0.2,0.1,0.4,0.1,0.6h0c0-0.2,0.1-0.4,0.1-0.7l1.4-5.3
			H120z"/>
		<path d="M124.7,113.6h-3.5c0,0.5,0.2,1,0.4,1.3c0.3,0.3,0.7,0.4,1.2,0.4c0.6,0,1.1-0.2,1.5-0.5v0.7c-0.4,0.3-1,0.5-1.7,0.5
			c-0.7,0-1.2-0.2-1.6-0.7c-0.4-0.4-0.6-1.1-0.6-1.9c0-0.8,0.2-1.4,0.7-1.9c0.4-0.5,1-0.7,1.6-0.7s1.1,0.2,1.5,0.6
			c0.4,0.4,0.5,1,0.5,1.7V113.6z M123.9,112.9c0-0.5-0.1-0.8-0.3-1.1c-0.2-0.3-0.5-0.4-0.9-0.4c-0.4,0-0.7,0.1-0.9,0.4
			c-0.3,0.3-0.4,0.6-0.5,1H123.9z"/>
		<path d="M128.7,115.9V109h1.9c2.4,0,3.7,1.1,3.7,3.4c0,1.1-0.3,1.9-1,2.6c-0.7,0.6-1.6,1-2.7,1H128.7z M129.5,109.7v5.4h1
			c0.9,0,1.6-0.2,2.1-0.7c0.5-0.5,0.8-1.2,0.8-2.1c0-1.8-0.9-2.7-2.8-2.7H129.5z"/>
		<path d="M137.5,116c-0.7,0-1.3-0.2-1.7-0.7c-0.4-0.5-0.7-1.1-0.7-1.8c0-0.8,0.2-1.5,0.7-1.9c0.5-0.5,1.1-0.7,1.8-0.7
			c0.7,0,1.3,0.2,1.7,0.7c0.4,0.5,0.6,1.1,0.6,1.9c0,0.8-0.2,1.4-0.7,1.9C138.9,115.8,138.3,116,137.5,116z M137.6,111.5
			c-0.5,0-0.9,0.2-1.2,0.5c-0.3,0.3-0.4,0.8-0.4,1.4c0,0.6,0.1,1,0.4,1.4c0.3,0.3,0.7,0.5,1.2,0.5c0.5,0,0.9-0.2,1.2-0.5
			c0.3-0.3,0.4-0.8,0.4-1.4c0-0.6-0.1-1.1-0.4-1.4C138.5,111.7,138.1,111.5,137.6,111.5z"/>
	</g>
</g>
</svg>
